<?xml version="1.0" standalone="no"?>
<!DOCTYPE svg PUBLIC "-//W3C//DTD SVG 20010904//EN"
 "http://www.w3.org/TR/2001/REC-SVG-20010904/DTD/svg10.dtd">
<svg version="1.0" xmlns="http://www.w3.org/2000/svg"
 width="256.000000pt" height="256.000000pt" viewBox="0 0 256.000000 256.000000"
 preserveAspectRatio="xMidYMid meet">

<g transform="translate(0.000000,256.000000) scale(0.100000,-0.100000)"
fill="#000000" stroke="none">
<path d="M693 2334 c-26 -20 -70 -56 -98 -79 -90 -75 -91 -75 -193 -75 l-94 0
-154 -154 -154 -153 0 -232 0 -232 126 -152 c70 -84 134 -155 143 -159 9 -4
129 -7 268 -7 l252 -1 92 -92 92 -93 216 -3 c166 -2 218 -6 226 -16 6 -7 35
-42 66 -77 173 -198 280 -321 329 -379 29 -36 61 -72 70 -80 13 -12 123 -141
125 -146 0 -1 10 -5 22 -8 15 -5 28 -1 42 13 20 20 21 33 21 191 l0 170 126 0
126 0 109 109 109 108 0 447 0 447 -110 109 -110 110 -80 0 -80 0 0 80 0 80
-110 110 -110 110 -168 0 -168 0 -44 45 -44 45 -397 0 -397 0 -49 -36z m827
-79 l24 -25 -62 -63 -62 -63 0 -77 0 -77 50 0 50 0 0 62 c0 62 1 63 52 115
l52 53 150 0 151 0 82 -82 83 -83 0 -57 0 -58 -58 0 c-55 0 -60 -2 -102 -45
-24 -25 -52 -45 -62 -45 -15 0 -18 -9 -18 -50 0 -50 0 -50 33 -50 26 0 42 10
77 45 l44 45 150 0 151 0 77 -77 78 -78 0 -410 0 -411 -84 -82 -84 -82 -101 0
-101 0 0 56 c0 56 0 56 -70 128 l-70 73 0 83 0 83 55 54 c54 52 57 53 115 53
l60 0 0 45 0 45 -83 0 -83 0 -82 -84 -82 -84 0 -56 0 -56 -70 0 -70 0 0 -50 0
-50 68 -1 67 -2 73 -77 72 -77 -2 -184 -3 -183 -74 84 c-40 47 -90 103 -110
125 -65 70 -261 303 -261 309 0 3 16 6 35 6 l35 0 0 50 0 50 -297 0 -298 0
-82 82 -83 83 0 119 0 120 83 83 83 83 285 0 286 0 77 76 78 76 -28 29 c-15
16 -33 29 -39 29 -6 0 -37 -27 -70 -60 l-59 -60 -286 0 -285 0 -107 -107 -108
-108 0 -127 0 -128 -229 0 -228 0 -84 102 c-46 57 -92 111 -101 120 -16 16
-18 40 -18 220 l0 203 127 127 128 128 72 0 73 0 54 -53 c54 -52 55 -54 58
-117 l3 -65 48 -3 47 -3 0 81 0 81 -57 61 -58 60 35 29 c19 16 61 50 93 74
l59 45 357 0 358 0 23 -25z"/>
<path d="M1013 2028 c-63 -63 -63 -64 -63 -121 l0 -57 45 0 c45 0 45 0 45 36
0 50 65 114 116 114 35 0 35 0 32 43 l-3 42 -55 3 -55 3 -62 -63z"/>
<path d="M348 1652 l-58 -59 0 -62 0 -62 43 3 c40 3 42 5 45 38 2 23 14 46 35
68 l31 32 133 0 133 0 0 50 0 50 -152 0 -151 0 -59 -58z"/>
<path d="M2048 1564 c-5 -4 -8 -27 -8 -51 l0 -43 84 0 c81 0 86 -1 115 -30 20
-21 31 -42 33 -68 3 -37 4 -37 51 -40 l47 -3 0 56 c0 56 -1 58 -59 118 l-60
62 -98 3 c-54 2 -101 0 -105 -4z"/>
<path d="M1700 1390 l-55 -59 -252 0 -253 -1 0 -45 0 -45 273 0 273 0 74 75
74 75 -29 30 c-16 16 -34 30 -39 29 -6 -1 -36 -27 -66 -59z"/>
<path d="M2137 1002 c-15 -15 -27 -33 -27 -38 0 -5 22 -32 50 -59 44 -44 54
-49 105 -53 l55 -4 0 51 0 51 -37 0 c-30 0 -45 8 -78 40 l-41 40 -27 -28z"/>
</g>
</svg>
